<svg xmlns="http://www.w3.org/2000/svg" viewBox="0 0 500 500"><path d="M405.2 255.09c-88.41-51-231.29-51-319.12 0s-87.38 133.81 1 184.85 231.29 51.05 319.13 0 87.4-133.8-1.01-184.85Z" style="fill:#f5f5f5" id="freepik--Floor--inject-58"/><g id="freepik--Shadows--inject-58"><path d="M441.75 354.44c7.92-4.57 20.72-4.57 28.59 0s7.83 12-.09 16.56-20.72 4.57-28.59 0-7.83-12 .09-16.56ZM51.42 419.46c21-12.15 55.06-12.15 76 0s20.8 31.85-.24 44-55.06 12.15-76 0-20.81-31.85.24-44ZM143 316.51c-19.83-11.46-51.89-11.46-71.6 0s-19.6 30 .24 41.47 51.89 11.45 71.6 0 19.6-29.98-.24-41.47ZM180.08 402c22.27-12.85 58.26-12.85 80.38 0s22 33.71-.26 46.57-58.26 12.85-80.38 0-22.01-33.72.26-46.57ZM172.44 272.19 419.08 413.6l12.65-7.37-246.7-141.38-12.59 7.34z" style="fill:#e6e6e6"/></g><g id="freepik--light-bulb--inject-58"><g id="freepik--freepik--light-bulb--inject-77--inject-58"><g id="freepik--freepik--Idea--inject-77--inject-58"><g id="freepik--freepik--light--inject-77--inject-58"><path d="M93.14 84.63A3 3 0 1 1 89.2 83a3 3 0 0 1 3.94 1.59Z" style="fill:#37474f"/><path d="M87.11 87.42c-2.28-.28-3-2-1.62-3.84a7.94 7.94 0 0 1 6.63-2.8c2.28.28 3 2 1.62 3.82a8 8 0 0 1-6.63 2.82Z" style="fill:#455a64"/><path d="M86.59 86.47c-2.35-.3-3.1-2.06-1.68-4a8.24 8.24 0 0 1 6.84-2.91c2.35.3 3.1 2.06 1.66 4a8.14 8.14 0 0 1-6.82 2.91Z" style="fill:#37474f"/><path d="M86.06 85.49c-2.42-.3-3.19-2.11-1.69-4a8.42 8.42 0 0 1 7-3c2.42.29 3.2 2.11 1.74 4.06a8.45 8.45 0 0 1-7.05 2.94Z" style="fill:#455a64"/><path d="M85.48 84.46c-2.49-.3-3.28-2.18-1.77-4.18A8.7 8.7 0 0 1 91 77.19c2.49.31 3.29 2.18 1.77 4.19a8.7 8.7 0 0 1-7.29 3.08Z" style="fill:#37474f"/><path d="M84.92 83.4c-2.59-.34-3.36-2.22-1.82-4.28A8.89 8.89 0 0 1 90.52 76c2.54.3 3.36 2.22 1.81 4.27a8.86 8.86 0 0 1-7.41 3.13Z" style="fill:#455a64"/><path d="M75 49.59a14.28 14.28 0 0 0-7.61 18.7v.06C71.8 78.8 81.15 76.88 83 81.08a2.46 2.46 0 0 0 2.12 1.29 7.71 7.71 0 0 0 6.42-2.72 2.48 2.48 0 0 0 .53-2.4c-1.8-4.21 6.09-9.61 1.65-20.07A14.28 14.28 0 0 0 75 49.57Z" style="fill:#056cf2"/><g style="opacity:.6"><path d="M75 49.59a14.28 14.28 0 0 0-7.61 18.7v.06C71.8 78.8 81.15 76.88 83 81.08a2.46 2.46 0 0 0 2.12 1.29 7.71 7.71 0 0 0 6.42-2.72 2.48 2.48 0 0 0 .53-2.4c-1.8-4.21 6.09-9.61 1.65-20.07A14.28 14.28 0 0 0 75 49.57Z" style="fill:#fff"/></g><path d="M85.66 81.49c-1.63-.23-2.2-1.44-1.22-2.75a5.79 5.79 0 0 1 4.84-2c1.63.23 2.18 1.45 1.18 2.78a5.76 5.76 0 0 1-4.8 1.97Z" style="fill:#056cf2"/><path d="M89.09 78a.48.48 0 0 1-.62-.24 34.7 34.7 0 0 1-2.26-7.91 17.15 17.15 0 0 1-.21-2.37 7.21 7.21 0 0 1-1.39-.08 8.34 8.34 0 0 1-2.39-.76 8.68 8.68 0 0 1-1.12 2.21 7.53 7.53 0 0 1-.91 1 20.55 20.55 0 0 1 1.55 1.81 34.47 34.47 0 0 1 4.11 7.14.48.48 0 0 1-.27.63.5.5 0 0 1-.63-.28 33.9 33.9 0 0 0-4-6.9 15.56 15.56 0 0 0-1.54-1.8 3.05 3.05 0 0 1-2.81.32 1.55 1.55 0 0 1-1-1.76 1.29 1.29 0 0 1 1-1 3.68 3.68 0 0 1 2.84 1.21 5.22 5.22 0 0 0 .82-.94 7.46 7.46 0 0 0 1.07-2.15 3.55 3.55 0 0 1-1.72-2.23 1.37 1.37 0 0 1 2.4-1 3.51 3.51 0 0 1 .41 2.79 7.69 7.69 0 0 0 2.28.73 5.79 5.79 0 0 0 1.25 0 3.71 3.71 0 0 1 1.11-2.88 1.3 1.3 0 0 1 1.44 0 1.54 1.54 0 0 1 .59 1.92 3.06 3.06 0 0 1-2.18 1.8 17 17 0 0 0 .22 2.36 34 34 0 0 0 2.2 7.67.5.5 0 0 1-.24.65Zm-12.35-9a.34.34 0 0 0-.18.27c-.09.39.3.61.42.66a1.91 1.91 0 0 0 1.63-.14 2.74 2.74 0 0 0-1.8-.82ZM87 66.29a2 2 0 0 0 1.23-1.09c0-.12.17-.55-.18-.76a.31.31 0 0 0-.38 0c-.3.16-.59.77-.67 1.85Zm-6.13-2.85a.33.33 0 0 0-.24.39 2.34 2.34 0 0 0 1 1.32 2.39 2.39 0 0 0-.28-1.61.34.34 0 0 0-.45-.11Z" style="fill:#fff"/></g><path d="M72.92 44.56a.7.7 0 0 1-.21.14.94.94 0 0 1-1.23-.49l-1.93-4.48a.92.92 0 0 1 .45-1.22.94.94 0 0 1 1.23.5l1.93 4.47a1 1 0 0 1-.24 1.08ZM64.48 51.25a.93.93 0 0 1-1.13 0l-3.91-2.9a.94.94 0 0 1 1.11-1.51l3.91 2.9a.94.94 0 0 1 .19 1.31.58.58 0 0 1-.17.2ZM60.53 61.25a.94.94 0 0 1-.7.2L55 60.89a.93.93 0 0 1-.82-1 1 1 0 0 1 1-.83l4.84.56a.93.93 0 0 1 .82 1 .91.91 0 0 1-.31.63ZM62.09 71.89a.58.58 0 0 1-.18.17L57.44 74a.92.92 0 0 1-1.22-.46.93.93 0 0 1 .46-1.23l4.45-2a.94.94 0 0 1 1 1.59ZM104.72 53.47a1 1 0 0 1-.18.17L100 55.53a.93.93 0 1 1-.73-1.71l4.47-1.94a.93.93 0 0 1 1.21.53.94.94 0 0 1-.26 1.06ZM93.57 47a.94.94 0 0 1-1.33-1.3l2.91-3.9a.91.91 0 0 1 1.28-.2.93.93 0 0 1 .2 1.29l-2.91 3.91a.73.73 0 0 1-.15.2ZM83.57 43a1 1 0 0 1-1.32-.15 1 1 0 0 1-.2-.69l.61-4.8a.93.93 0 0 1 1.85.21l-.57 4.84a.89.89 0 0 1-.37.59Z" style="fill:#e0e0e0"/></g></g></g><g id="freepik--Plant--inject-58"><path d="m436.83 328.13 19.17.56 19.18-.56c.82 12.95-1.71 26.15-5.19 32.59a8.67 8.67 0 0 1-3.79 3.86c-5.66 3.27-14.8 3.27-20.42 0a8.5 8.5 0 0 1-3.8-4c-3.48-6.44-5.98-19.58-5.15-32.45Z" style="fill:#fff"/><path d="M442.49 320.28c-7.52 4.34-7.56 11.37-.09 15.71s19.6 4.33 27.12 0 7.55-11.37.08-15.71-19.6-4.34-27.11 0Z" style="fill:#ebebeb"/><path d="M445.46 322c-5.86 3.39-5.9 8.87-.07 12.26s15.29 3.38 21.15 0 5.9-8.87.07-12.26-15.29-3.38-21.15 0Z" style="fill:#e0e0e0"/><path d="M445.46 322c-5.86 3.39-5.9 8.87-.07 12.26s15.29 3.38 21.15 0 5.9-8.87.07-12.26-15.29-3.38-21.15 0Z" style="opacity:.15"/><path d="M465.78 288.89c3.12-3.88 6.74-7.35 9.6-11.42 1.95-2.78 3.58-6.18 2.76-9.47a8.46 8.46 0 0 0-6.71-5.91 12.84 12.84 0 0 0-9 2 27.58 27.58 0 0 0-6.81 6.48 67.67 67.67 0 0 0-14.25 48.32c.19 2 .52 4 1.78 5.55a5.53 5.53 0 0 0 5.73 1.75c5.22-1.55 4.53-8.6 5.38-12.75a58.47 58.47 0 0 1 6-16.29 57.3 57.3 0 0 1 5.52-8.26Z" style="fill:#455a64"/><path d="M465.78 288.89c3.12-3.88 6.74-7.35 9.6-11.42 1.95-2.78 3.58-6.18 2.76-9.47a8.46 8.46 0 0 0-6.71-5.91 12.84 12.84 0 0 0-9 2 27.58 27.58 0 0 0-6.81 6.48 67.67 67.67 0 0 0-14.25 48.32c.19 2 .52 4 1.78 5.55a5.53 5.53 0 0 0 5.73 1.75c5.22-1.55 4.53-8.6 5.38-12.75a58.47 58.47 0 0 1 6-16.29 57.3 57.3 0 0 1 5.52-8.26Z" style="fill:#fff;opacity:.2"/><path d="M448.54 321a.46.46 0 0 0 .37-.43c.37-8.39 3.09-37 22.82-53.25a.46.46 0 0 0 .06-.64.45.45 0 0 0-.64-.06c-20 16.48-22.78 45.43-23.15 53.91a.45.45 0 0 0 .44.47Z" style="fill:#f0f0f0"/><path d="M445.66 321.85c.6 3.29 3.43 7.37 6.41 8.88a18 18 0 0 0 9.69 1.63 42.6 42.6 0 0 0 9.84-2.36c1.58-.53 3.34-1.25 3.5-3.21a3.48 3.48 0 0 0-1.11-2.75 11.07 11.07 0 0 0-1-.88 1 1 0 0 1 .54-1.82 22.24 22.24 0 0 0 2.81-.35 12.21 12.21 0 0 0 5.88-2.66 9.75 9.75 0 0 0 2.72-4c.48-1.31.61-3-.39-3.95a4.31 4.31 0 0 0-2.18-.95q-1.05-.23-2.1-.39a.93.93 0 0 1-.22-1.79l3-1.23a5.63 5.63 0 0 0 2.26-1.41 4.89 4.89 0 0 0 .57-4.09c-.36-1.87-1-3.66-1.44-5.51a11.8 11.8 0 0 1-.2-5.63 47.41 47.41 0 0 0-16.66 1.11 11.94 11.94 0 0 0-4.55 2c-1.85 1.49-2.34 3.71-2.14 6.13a.43.43 0 0 1-.81.23l-1.9-3.51a2.25 2.25 0 0 0-3-.94 13.67 13.67 0 0 0-4.34 3.41 7.52 7.52 0 0 0-1.86 5.57 49.1 49.1 0 0 0 1.38 8.17.75.75 0 0 1-1.18.79l-.09-.06a2.54 2.54 0 0 0-1.79-.52c-1.68.21-2.11 1.91-2.22 3.36a27.89 27.89 0 0 0 .58 6.73Z" style="fill:#455a64"/><path d="M445.66 321.85c.6 3.29 3.43 7.37 6.41 8.88a18 18 0 0 0 9.69 1.63 42.6 42.6 0 0 0 9.84-2.36c1.58-.53 3.34-1.25 3.5-3.21a3.48 3.48 0 0 0-1.11-2.75 11.07 11.07 0 0 0-1-.88 1 1 0 0 1 .54-1.82 22.24 22.24 0 0 0 2.81-.35 12.21 12.21 0 0 0 5.88-2.66 9.75 9.75 0 0 0 2.72-4c.48-1.31.61-3-.39-3.95a4.31 4.31 0 0 0-2.18-.95q-1.05-.23-2.1-.39a.93.93 0 0 1-.22-1.79l3-1.23a5.63 5.63 0 0 0 2.26-1.41 4.89 4.89 0 0 0 .57-4.09c-.36-1.87-1-3.66-1.44-5.51a11.8 11.8 0 0 1-.2-5.63 47.41 47.41 0 0 0-16.66 1.11 11.94 11.94 0 0 0-4.55 2c-1.85 1.49-2.34 3.71-2.14 6.13a.43.43 0 0 1-.81.23l-1.9-3.51a2.25 2.25 0 0 0-3-.94 13.67 13.67 0 0 0-4.34 3.41 7.52 7.52 0 0 0-1.86 5.57 49.1 49.1 0 0 0 1.38 8.17.75.75 0 0 1-1.18.79l-.09-.06a2.54 2.54 0 0 0-1.79-.52c-1.68.21-2.11 1.91-2.22 3.36a27.89 27.89 0 0 0 .58 6.73Z" style="opacity:.2"/><path d="M445.66 321.85c.6 3.29 3.43 7.37 6.41 8.88a18 18 0 0 0 9.69 1.63 42.6 42.6 0 0 0 9.84-2.36c1.58-.53 3.34-1.25 3.5-3.21a3.48 3.48 0 0 0-1.11-2.75 11.07 11.07 0 0 0-1-.88 1 1 0 0 1 .54-1.82 22.24 22.24 0 0 0 2.81-.35 12.21 12.21 0 0 0 5.88-2.66 9.75 9.75 0 0 0 2.72-4c.48-1.31.61-3-.39-3.95a4.31 4.31 0 0 0-2.18-.95q-1.05-.23-2.1-.39a.93.93 0 0 1-.22-1.79l3-1.23a5.63 5.63 0 0 0 2.26-1.41 4.89 4.89 0 0 0 .57-4.09c-.36-1.87-1-3.66-1.44-5.51a11.8 11.8 0 0 1-.2-5.63 47.41 47.41 0 0 0-16.66 1.11 11.94 11.94 0 0 0-4.55 2c-1.85 1.49-2.34 3.71-2.14 6.13a.43.43 0 0 1-.81.23l-1.9-3.51a2.25 2.25 0 0 0-3-.94 13.67 13.67 0 0 0-4.34 3.41 7.52 7.52 0 0 0-1.86 5.57 49.1 49.1 0 0 0 1.38 8.17.75.75 0 0 1-1.18.79l-.09-.06a2.54 2.54 0 0 0-1.79-.52c-1.68.21-2.11 1.91-2.22 3.36a27.89 27.89 0 0 0 .58 6.73Z" style="fill:#fff;opacity:.2"/><path d="M454.5 330.28a66.72 66.72 0 0 1 4.48-13 .44.44 0 0 1 .16-.34c.1-.23.2-.45.31-.68A41.77 41.77 0 0 0 455 301.4a.47.47 0 0 1 .17-.63.46.46 0 0 1 .62.17 42.32 42.32 0 0 1 4.38 13.82c3.79-7.6 9.85-16.5 19.19-23a.45.45 0 0 1 .64.11.46.46 0 0 1-.12.64c-9.64 6.7-15.72 16-19.41 23.71a28.1 28.1 0 0 1 15.88-2.15.47.47 0 0 1 .37.54.46.46 0 0 1-.36.36h-.18c-.09 0-8.81-1.6-16.35 2.62a66.34 66.34 0 0 0-4.44 12.86.46.46 0 0 1-.36.36.37.37 0 0 1-.18 0 .45.45 0 0 1-.35-.53Z" style="fill:#f0f0f0"/></g><g id="freepik--Screen--inject-58"><path d="m417 358.21.33-185.21a14.25 14.25 0 0 0-6.47-11.22L181.12 29.44c-1.78-1-3.4-1.14-4.58-.48l6.8-3.93c1.18-.75 2.86-.69 4.72.38L417.79 157.7a14.27 14.27 0 0 1 6.48 11.22L424 354.19a4.69 4.69 0 0 1-1.73 4.05l-.36.21-6.71 3.91c1.09-.69 1.8-2.12 1.8-4.15Z" style="fill:#056cf2"/><path d="M183.34 25c1.18-.75 2.86-.69 4.72.38L417.79 157.7a13.62 13.62 0 0 1 5 5.53l-6.95 4a13.55 13.55 0 0 0-4.95-5.52L181.12 29.44c-1.78-1-3.4-1.14-4.58-.48Z" style="fill:#fff;opacity:.3"/><path d="M424.27 168.92 424 354.19a4.69 4.69 0 0 1-1.73 4.05l-.36.21-6.71 3.91c1.15-.69 1.86-2.12 1.87-4.15l.26-185.21a12.57 12.57 0 0 0-1.52-5.7l6.95-4a12.68 12.68 0 0 1 1.51 5.62Z" style="fill:#fff;opacity:.2"/><path d="M417.32 181.36 417 358.21c0 2-.72 3.46-1.87 4.15l-.1.06h-.05c-1.17.61-2.75.5-4.5-.51L180.75 229.64a14.31 14.31 0 0 1-6.48-11.22l.31-177.08Z" style="fill:#056cf2"/><path d="M417.32 181.36 417 358.21c0 2-.72 3.46-1.87 4.15l-.1.06h-.05c-1.17.61-2.75.5-4.5-.51L180.75 229.64a14.31 14.31 0 0 1-6.48-11.22l.31-177.08Z" style="opacity:.2"/><path style="fill:#fff" d="m203.16 224.14.26-146.98 197.59 113.6-.26 146.76-197.59-113.38z"/><path style="fill:#455a64" d="m284.97 211.71.11-75.98 87.61 50.36-.12 75.89-87.6-50.27z"/><path d="M174.6 33.15c0-2 .72-3.45 1.87-4.14 1.18-.66 2.8-.55 4.58.48l229.81 132.24a14.25 14.25 0 0 1 6.47 11.27v8.41l-242.74-140Z" style="fill:#056cf2"/><path d="M174.6 33.15c0-2 .72-3.45 1.87-4.14 1.18-.66 2.8-.55 4.58.48l229.81 132.24a14.25 14.25 0 0 1 6.47 11.27v8.41l-242.74-140Z" style="opacity:.3"/><g style="opacity:.39"><path d="M191.8 42.1c-1-.56-1.77-.11-1.77 1a3.85 3.85 0 0 0 1.76 3.06c1 .57 1.78.11 1.78-1a3.9 3.9 0 0 0-1.77-3.06ZM187 39.31c-1-.57-1.77-.12-1.77 1a3.88 3.88 0 0 0 1.77 3.07c1 .56 1.78.11 1.78-1a3.89 3.89 0 0 0-1.78-3.07ZM182.12 36.51c-1-.56-1.77-.11-1.77 1a3.85 3.85 0 0 0 1.76 3.06c1 .57 1.78.12 1.78-1a3.92 3.92 0 0 0-1.77-3.06Z" style="fill:#fff"/></g><path style="fill:#fff" d="m191.08 102.5-.03 9.23.03-9.23zM191.04 115.28l-8.03-4.64 8.03 4.64-.02 9.23.02-9.23z"/><rect x="186.99" y="121.09" height="9.27" transform="rotate(-60 186.988 125.728)" style="fill:#fff"/><rect x="186.86" y="167.54" height="9.27" transform="rotate(-60 186.865 172.18)" style="fill:#fff"/><path style="fill:#fff" d="m183.09 81.55 8.04 4.64-8.04-4.64zM186.48 87.05l4.64 2.68-.03 9.23.03-9.23-4.64-2.68zM183.06 94.32l8.03 4.64-8.03-4.64zM183.02 107.09l8.03 4.64-8.03-4.64zM186.2 184.59l4.64 2.68-.03 9.23.03-9.23-4.64-2.68z"/><rect x="186.93" y="142" height="9.27" transform="rotate(-60 186.93 146.63)" style="fill:#fff"/><rect x="186.9" y="154.77" height="9.27" transform="rotate(-60 186.897 159.405)" style="fill:#fff"/><path style="fill:#fff" d="m183.05 97.87 8.03 4.63-.03 9.23-8.03-4.64.03-9.22zM191.02 124.51l-8.03-4.64.02-9.23 8.03 4.64-.02 9.23zM182.88 157.09l8.03 4.64-.03 9.23-8.03-4.64.03-9.23zM190.85 183.72l-8.03-4.63.02-9.23 8.04 4.64-.03 9.22zM182.92 144.32l8.03 4.63-.03 9.23-8.03-4.64.03-9.22z"/><path d="m180.15 206.12 13.21 7.62.19-66.26-13.21-7.63Zm2.69-36.26 8 4.64v9.23l-8-4.64v-9.23Zm8.08-11.68-8-4.64v-9.22l8 4.63Zm0 12.78-8-4.64v-9.23l8 4.64Zm-.07 25.54-8-4.64v-9.22l3.39 2 4.64 2.68v9.23Zm-8.06 8.13v-9.23l8 4.64v9.23ZM180.36 134.12l13.2 7.63.19-66.27-13.21-7.63Zm10.77-47.93-8-4.64v-9.23l8 4.64Zm0 12.77-8-4.64v-9.23l3.4 2 4.64 2.68Zm0 12.77-8-4.63v-9.23l8 4.63Zm0 12.78-8-4.64v-9.23l8 4.64Zm0 12.77-8-4.64v-9.23l8 4.64Z" style="fill:#056cf2"/><path d="m180.15 206.12 13.21 7.62.19-66.26-13.21-7.63Zm2.69-36.26 8 4.64v9.23l-8-4.64v-9.23Zm8.08-11.68-8-4.64v-9.22l8 4.63Zm0 12.78-8-4.64v-9.23l8 4.64Zm-.07 25.54-8-4.64v-9.22l3.39 2 4.64 2.68v9.23Zm-8.06 8.13v-9.23l8 4.64v9.23ZM180.36 134.12l13.2 7.63.19-66.27-13.21-7.63Zm10.77-47.93-8-4.64v-9.23l8 4.64Zm0 12.77-8-4.64v-9.23l3.4 2 4.64 2.68Zm0 12.77-8-4.63v-9.23l8 4.63Zm0 12.78-8-4.64v-9.23l8 4.64Zm0 12.77-8-4.64v-9.23l8 4.64Z" style="fill:#455a64"/><path style="fill:#fff" d="m183.06 94.32.02-9.23 3.4 1.96 4.64 2.68-.03 9.23-8.03-4.64zM180.54 67.85l.02-5.14 13.21 7.62-.02 5.15-13.21-7.63zM183.09 81.55l.03-9.23 8.03 4.64-.02 9.23-8.04-4.64zM182.97 123.41l8.04 4.64-.03 9.23-8.03-4.64.02-9.23zM182.78 191.86l.03-9.23 3.39 1.96 4.64 2.68-.03 9.23-8.03-4.64zM190.8 200.04l-.02 9.23-8.03-4.64.02-9.23 8.03 4.64z"/><path style="fill:#37474f" d="m352.37 264.71-.02 4.21-67.64-39.62.02-4.21 67.64 39.62z"/><ellipse cx="224.86" cy="214.42" rx="6.61" ry="11.41" transform="rotate(-30.16 224.877 214.429)" style="fill:#e0e0e0"/><path d="M225 181.54c4.47 2.58 8.09 8.84 8.07 14s-3.65 7.21-8.12 4.63-8.09-8.84-8.07-14 3.6-7.17 8.12-4.63ZM247 194.24c4.47 2.58 8.09 8.84 8.07 14s-3.65 7.21-8.12 4.63-8.09-8.84-8.07-14 3.6-7.21 8.12-4.63ZM268.88 230.52c4.47 2.58 8.08 8.84 8.07 14s-3.65 7.21-8.13 4.63-8.08-8.84-8.07-14 3.65-7.21 8.13-4.63Z" style="fill:#e0e0e0"/><ellipse cx="268.92" cy="216.24" rx="6.61" ry="11.41" transform="rotate(-30.16 268.95 216.253)" style="fill:#e0e0e0"/><ellipse cx="246.86" cy="227.12" rx="6.61" ry="11.41" transform="rotate(-30.16 246.887 227.147)" style="fill:#e0e0e0"/><path d="M440.63 130.1 354 80.06a1.74 1.74 0 0 0-1.76-.17l-6.48 4.64a1.76 1.76 0 0 1 1.74.18l86.68 50.05a5.46 5.46 0 0 1 2.42 4.24l-.34 77.39a1.73 1.73 0 0 1-.69 1.56l6.56-4.7a1.8 1.8 0 0 0 .63-1.52l.34-77.39a5.46 5.46 0 0 0-2.47-4.24Z" style="fill:#056cf2"/><path d="m436.26 216.43.34-77.43a5.46 5.46 0 0 0-2.47-4.28l-86.68-50a1.76 1.76 0 0 0-1.74-.18 1.72 1.72 0 0 0-.74 1.61l-.34 77.39a5.46 5.46 0 0 0 2.47 4.28l86.68 50a1.69 1.69 0 0 0 1.79.14 1.73 1.73 0 0 0 .69-1.53Z" style="fill:#455a64"/><path d="m358.14 141.41-.02 9.18-7.99-4.61.03-9.18 7.98 4.61zM358.14 158.59l-.02 9.17-7.99-4.61.03-9.18 7.98 4.62z" style="opacity:.3"/><path style="fill:#fff" d="m366.13 163.19-.02 9.18-7.99-4.61.03-9.17 7.98 4.6z"/><g style="opacity:.5"><path style="fill:#fff" d="m410.38 174.37-.01 3.58-47.52-27.43.01-3.58 47.52 27.43z"/></g><path d="m358.18 127.34-.02 9.17-7.99-4.61.03-9.17 7.98 4.61z" style="opacity:.3"/><g style="opacity:.5"><path style="fill:#fff" d="m410.46 146.22-.01 3.58-47.52-27.43.01-3.59 47.52 27.44z"/></g><g style="opacity:.5"><path style="fill:#fff" d="m410.42 160.3-.01 3.58-47.52-27.43.01-3.58 47.52 27.43z"/></g><path d="m358.22 113.26-.02 9.18-7.99-4.61.03-9.18 7.98 4.61z" style="opacity:.3"/><path style="fill:#fff" d="m431.1 155.33-.03 9.18-16.4-9.47.03-9.18 16.4 9.47zM431.02 183.49l-.03 9.17-16.4-9.47.03-9.17 16.4 9.47zM431.06 169.41l-.03 9.18-16.4-9.47.03-9.18 16.4 9.47z"/><path d="M434.13 134.75a5.46 5.46 0 0 1 2.47 4.25v7.41l-53.3-30.78v-10.25Z" style="opacity:.3"/><path style="fill:#fff" d="m378.49 107.21-29.72-17.16-.01 3.39 29.73 17.16v-3.39zM426.79 133.08v.96l5.99 3.46v-.96l-5.99-3.46zM426.78 138.95l5.98 3.45.01-.94-5.99-3.46v.95zM426.79 135.68l5.98 3.45.01-.95-5.99-3.46v.96zM426.78 137.31l5.99 3.45v-.94l-5.99-3.46v.95z"/><path d="M440.63 130.1 354 80.06a1.74 1.74 0 0 0-1.76-.17l-6.48 4.64a1.76 1.76 0 0 1 1.74.18l86.68 50.05a5.15 5.15 0 0 1 1.89 2.12l6.81-3.91a5.48 5.48 0 0 0-2.25-2.87Z" style="fill:#37474f"/><path d="M436 136.88a4.89 4.89 0 0 1 .58 2.16l-.34 77.39a1.73 1.73 0 0 1-.69 1.56l6.56-4.7a1.8 1.8 0 0 0 .63-1.52l.34-77.39a4.28 4.28 0 0 0-.27-1.41Z" style="fill:#263238"/><path d="m306.76 74.47-86.68-50a1.77 1.77 0 0 0-1.76-.18l-6.48 4.65a1.76 1.76 0 0 1 1.74.18l86.68 50.05a5.46 5.46 0 0 1 2.47 4.28l-.34 35.39a1.75 1.75 0 0 1-.68 1.56l6.56-4.7a1.81 1.81 0 0 0 .62-1.51l.34-35.4a5.46 5.46 0 0 0-2.47-4.32Z" style="fill:#056cf2"/><path d="m302.39 118.8.34-35.39a5.46 5.46 0 0 0-2.47-4.28l-86.68-50a1.76 1.76 0 0 0-1.74-.18 1.74 1.74 0 0 0-.74 1.6l-.34 35.4a5.46 5.46 0 0 0 2.47 4.28l86.68 50a1.71 1.71 0 0 0 1.8.14 1.75 1.75 0 0 0 .68-1.57Z" style="fill:#455a64"/><g style="opacity:.5"><path style="fill:#fff" d="m227.47 57.5-.04 12.65-11-6.35.03-12.65 11.01 6.35z"/></g><g style="opacity:.5"><path style="fill:#fff" d="m244.63 67-.04 12.66-11-6.35.03-12.66L244.63 67z"/></g><g style="opacity:.5"><path style="fill:#fff" d="m261.78 76.51-.03 12.65-11.01-6.35.04-12.66 11 6.36z"/></g><g style="opacity:.5"><path style="fill:#fff" d="m278.94 86.01-.03 12.65-11.01-6.35.04-12.65 11 6.35z"/></g><g style="opacity:.5"><path style="fill:#fff" d="m296.1 95.51-.04 12.66-11-6.36.04-12.65 11 6.35z"/></g><path d="M300.26 79.12a5.46 5.46 0 0 1 2.47 4.28v7.4L249.41 60V49.75Z" style="opacity:.3"/><path style="fill:#fff" d="m244.63 51.58-29.72-17.16-.01 3.39 29.72 17.16.01-3.39zM292.93 77.45l-.01.96 5.99 3.45v-.95l-5.98-3.46zM292.91 83.32l5.99 3.45v-.94l-5.99-3.46v.95zM292.92 80.05l5.99 3.45v-.95l-5.99-3.46v.96zM292.91 81.68l5.99 3.45v-.94l-5.98-3.46-.01.95z"/><path d="m306.76 74.47-86.68-50a1.77 1.77 0 0 0-1.76-.18l-6.48 4.65a1.76 1.76 0 0 1 1.74.18l86.68 50.05a5.15 5.15 0 0 1 1.89 2.12l6.85-3.95a5.44 5.44 0 0 0-2.24-2.87Z" style="fill:#37474f"/><path d="M302.15 81.25a4.89 4.89 0 0 1 .58 2.16l-.34 35.39a1.75 1.75 0 0 1-.68 1.56l6.56-4.7a1.81 1.81 0 0 0 .62-1.51l.34-35.4a4.28 4.28 0 0 0-.27-1.41Z" style="fill:#263238"/><path d="m440.63 230.46-86.68-50a1.77 1.77 0 0 0-1.76-.18l-6.48 4.65a1.76 1.76 0 0 1 1.74.18l86.68 50.05a5.46 5.46 0 0 1 2.47 4.28l-.34 118.42a1.73 1.73 0 0 1-.69 1.56l6.56-4.7a1.8 1.8 0 0 0 .63-1.52l.34-118.42a5.46 5.46 0 0 0-2.47-4.32Z" style="fill:#056cf2"/><path d="m436.26 357.82.34-118.42a5.46 5.46 0 0 0-2.47-4.28l-86.68-50.05a1.76 1.76 0 0 0-1.74-.18 1.72 1.72 0 0 0-.74 1.6l-.34 118.43a5.46 5.46 0 0 0 2.47 4.28l86.68 50a1.69 1.69 0 0 0 1.79.14 1.73 1.73 0 0 0 .69-1.52Z" style="fill:#056cf2"/><path d="M434.13 235.11a5.46 5.46 0 0 1 2.47 4.28v7.4L383.28 216v-10.25Z" style="opacity:.3"/><path style="fill:none" d="m430.16 315.57-.59-1.01-1.09.63 1.09-.63.59 1.01zM430.23 289.7l-.58-1.02-1.1.63 1.1-.63.58 1.02zM427.49 276.96l-.59.34.59-.34zM381.42 278.89l-1.68-2.9.59-.33-.59.33 1.68 2.9zM427.7 344.96l-.4-.69-.59.34.59-.34.4.69zM428.48 315.19l-1.09-1.89-.59.33.59-.33 1.09 1.89zM380.3 286.11l1.09 1.9 1.1-.64.58 1.02-.58-1.02-1.1.64-1.09-1.9-.59.34.59-.34z"/><rect x="380.08" y="260.06" height=".68" style="fill:none"/><path style="fill:none" d="m382.98 319.36-.58-1.01-1.1.63 1.1-.63.58 1.01zM379.62 317.42l.59-.33-.59.33 1.07 1.84-1.07-1.84zM429.49 345.54l.58 1.01-.58-1.02-1.1.64 1.1-.63zM426.88 287.76l.58-.34-.58.34zM429.72 264.68l-1.1.62 1.1-.62z"/><path style="fill:#fff" d="m354.65 268.74-6.08-3.51-.02 7.39 6.08 3.51.02-7.39zM354.68 258.28l-6.08-3.51-.02 7.39 6.08 3.51.02-7.39zM378.49 207.56l-29.72-17.15-.01 3.39 29.73 17.16v-3.4zM430.3 265.68l-.58-1-1.1.62-1.09-1.88-.59.32 1.68 2.9 1.68-.96zM354.73 242.86l-6.09-3.51-.02 7.39 6.08 3.52.03-7.4zM354.76 232.4l-6.09-3.51-.02 7.39 6.09 3.52.02-7.4z"/><path style="fill:#056cf2" d="m348.71 215.33-.02 7.4 75.84 43.78.02-7.39-75.84-43.79z"/><path d="m424.53 266.51 8.16 4.71v-7.39l-8.16-4.71Zm3-3.09 1.09 1.88 1.1-.62.58 1-1.68 1-1.68-2.9ZM348.74 204.32l-.02 7.39 75.84 43.79.02-7.39-75.84-43.79z" style="fill:#056cf2"/><path style="fill:#fff" d="m430.33 254.67-.58-1.01-1.1.62-1.09-1.89-.59.34 1.68 2.89 1.68-.95z"/><path d="m424.56 255.5 8.16 4.71v-7.39l-8.16-4.71Zm3-3.11 1.09 1.89 1.1-.62.58 1-1.68 1-1.65-2.93Z" style="fill:#056cf2"/><path style="fill:#fff" d="m383.17 252.05-.58-1.01-1.1.63-1.09-1.89-.59.33 1.68 2.9 1.68-.96z"/><path d="M385.56 257.59v-7.39l-8.16-4.71v7.39Zm-5.16-7.81 1.09 1.89 1.1-.63.58 1-1.68 1-1.68-2.9ZM357.8 252.04l19.57 11.3.02-7.39-19.57-11.3-.02 7.39z" style="fill:#056cf2"/><path style="fill:#056cf2" d="m377.42 245.49-19.57-11.3-.02 7.4 19.57 11.29.02-7.39z"/><path style="fill:#fff" d="m381.46 263.47 1.68-.96-.58-1.01-1.1.62-1.09-1.88-.58.33 1.67 2.9z"/><path d="m377.37 263.34 8.16 4.71v-7.39l-8.14-4.66v7.39Zm3-3.1 1.09 1.88 1.1-.62.58 1-1.68 1-1.67-2.9ZM424.46 290.53l8.16 4.71v-7.39l-8.16-4.71Zm2.42-2.77.58-.34 1.09 1.89 1.1-.63.58 1-1.68 1-1.67-2.9ZM424.42 306l8.16 4.71v-7.39l-8.16-4.71Zm3-3.1 1.09 1.89 1.09-.63.59 1-1.68 1-1.68-2.9ZM424.39 316.41l8.16 4.71v-7.4l-8.14-4.72Zm3-3.11 1.09 1.89 1.1-.63.58 1-1.68 1-1.68-2.89Z" style="fill:#056cf2"/><path style="fill:#056cf2" d="m404.84 297.71-.02 7.4 19.57 11.3.02-7.4-19.57-11.3zM404.87 287.26l-.02 7.39 19.57 11.3.02-7.39-19.57-11.3zM404.91 271.84l-.02 7.39 19.57 11.3.03-7.39-19.58-11.3zM404.94 261.38l-.02 7.39 19.57 11.3.02-7.39-19.57-11.3z"/><path style="fill:#fff" d="m430.26 279.24-.58-1.01-1.1.63-1.09-1.9-.59.34 1.68 2.9 1.68-.96z"/><path d="M424.51 272.68v7.39l8.16 4.71v-7.39l-8.16-4.71Zm3 4.28 1.09 1.9 1.1-.63.58 1-1.68 1-1.68-2.9Z" style="fill:#056cf2"/><path style="fill:#fff" d="m395.71 273.93 6.09 3.51.02-7.39-6.09-3.51-.02 7.39zM401.85 259.59l-6.09-3.51-.02 7.39 6.08 3.52.03-7.4zM428.55 290.66l1.68-.96-.58-1.02-1.1.63-1.09-1.89-.58.34 1.67 2.9z"/><path style="fill:#056cf2" d="m357.76 267.46 19.57 11.3.02-7.39-19.57-11.3-.02 7.39z"/><path d="m377.33 278.76 8.16 4.71v-7.39l-8.16-4.71v7.39Zm3-3.1 1.09 1.89 1.09-.63.59 1-1.68 1-1.68-2.9Z" style="fill:#056cf2"/><path style="fill:#fff" d="m381.42 278.89 1.68-.96-.59-1.01-1.09.63-1.09-1.89-.59.33 1.68 2.9zM381.39 288.01l-1.09-1.9-.59.34 1.68 2.9 1.68-.96-.58-1.02-1.1.64z"/><path d="m377.3 289.22 8.16 4.71v-7.39l-8.16-4.71Zm3-3.11 1.09 1.9 1.1-.64.58 1-1.68 1-1.68-2.9Z" style="fill:#056cf2"/><path style="fill:#fff" d="m365.22 296.97.02-7.39-6.08-3.51-.02 7.39 6.08 3.51z"/><path style="fill:#056cf2" d="m357.73 277.92 19.57 11.3.02-7.39-19.57-11.3-.02 7.39zM377.23 312.8l-28.75-16.6-.02 7.39 28.75 16.6.02-7.39z"/><path style="fill:#fff" d="m380.69 319.26.61 1.06 1.68-.96-.58-1.01-1.1.63-1.09-1.89-.59.33 1.07 1.84z"/><path d="M377.23 312.8v7.39l8.16 4.71v-7.39l-8.16-4.71Zm3 4.29 1.07 1.91 1.1-.63.58 1-1.68 1-.61-1.06-1.07-1.84ZM424.32 339.99l-28.75-16.6-.02 7.39 28.75 16.6.02-7.39z" style="fill:#056cf2"/><path style="opacity:.3" d="m348.71 215.33-.02 7.4 75.84 43.78.02-7.39-75.84-43.79zM348.74 204.32l-.02 7.39 75.84 43.79.02-7.39-75.84-43.79zM357.8 252.04l19.57 11.3.02-7.39-19.57-11.3-.02 7.39zM377.42 245.49l-19.57-11.3-.02 7.4 19.57 11.29.02-7.39zM404.84 297.71l-.02 7.4 19.57 11.3.02-7.4-19.57-11.3zM404.87 287.26l-.02 7.39 19.57 11.3.02-7.39-19.57-11.3zM404.91 271.84l-.02 7.39 19.57 11.3.03-7.39-19.58-11.3zM404.94 261.38l-.02 7.39 19.57 11.3.02-7.39-19.57-11.3zM357.76 267.46l19.57 11.3.02-7.39-19.57-11.3-.02 7.39zM357.73 277.92l19.57 11.3.02-7.39-19.57-11.3-.02 7.39zM377.23 312.8l-28.75-16.6-.02 7.39 28.75 16.6.02-7.39zM424.32 339.99l-28.75-16.6-.02 7.39 28.75 16.6.02-7.39z"/><path d="M424.32 340v7.39l8.16 4.71v-7.39l-8.16-4.71Zm3 4.28.4.69.69 1.21 1.1-.64.58 1-1.68 1-1.68-2.9Z" style="fill:#056cf2"/><path d="m424.53 266.51 8.16 4.71v-7.39l-8.16-4.71Zm3-3.09 1.09 1.88 1.1-.62.58 1-1.68 1-1.68-2.9ZM424.56 255.5l8.16 4.71v-7.39l-8.16-4.71Zm3-3.11 1.09 1.89 1.1-.62.58 1-1.68 1-1.65-2.93ZM385.56 257.59v-7.39l-8.16-4.71v7.39Zm-5.16-7.81 1.09 1.89 1.1-.63.58 1-1.68 1-1.68-2.9ZM377.37 263.34l8.16 4.71v-7.39l-8.14-4.66v7.39Zm3-3.1 1.09 1.88 1.1-.62.58 1-1.68 1-1.67-2.9ZM424.46 290.53l8.16 4.71v-7.39l-8.16-4.71Zm2.42-2.77.58-.34 1.09 1.89 1.1-.63.58 1-1.68 1-1.67-2.9ZM424.42 306l8.16 4.71v-7.39l-8.16-4.71Zm3-3.1 1.09 1.89 1.09-.63.59 1-1.68 1-1.68-2.9ZM424.39 316.41l8.16 4.71v-7.4l-8.14-4.72Zm3-3.11 1.09 1.89 1.1-.63.58 1-1.68 1-1.68-2.89ZM424.51 272.68v7.39l8.16 4.71v-7.39l-8.16-4.71Zm3 4.28 1.09 1.9 1.1-.63.58 1-1.68 1-1.68-2.9ZM377.33 278.76l8.16 4.71v-7.39l-8.16-4.71v7.39Zm3-3.1 1.09 1.89 1.09-.63.59 1-1.68 1-1.68-2.9ZM377.3 289.22l8.16 4.71v-7.39l-8.16-4.71Zm3-3.11 1.09 1.9 1.1-.64.58 1-1.68 1-1.68-2.9ZM377.23 312.8v7.39l8.16 4.71v-7.39l-8.16-4.71Zm3 4.29 1.07 1.91 1.1-.63.58 1-1.68 1-.61-1.06-1.07-1.84ZM424.32 340v7.39l8.16 4.71v-7.39l-8.16-4.71Zm3 4.28.4.69.69 1.21 1.1-.64.58 1-1.68 1-1.68-2.9Z" style="opacity:.4"/><path style="fill:#fff" d="m430.07 346.55-.58-1.01-1.1.63-.69-1.21-.4-.69-.59.34 1.68 2.9 1.68-.96zM395.64 299.81l6.08 3.51.02-7.39-6.08-3.52-.02 7.4zM395.67 289.35l6.08 3.51.02-7.39-6.08-3.52-.02 7.4zM430.19 305.12l-.58-1.01-1.1.63-1.09-1.89-.59.33 1.67 2.9 1.69-.96zM430.16 315.57l-.59-1.01-1.09.63-1.09-1.89-.59.33 1.68 2.9 1.68-.96zM354.61 283.44l-6.08-3.51-.03 7.39 6.09 3.51.02-7.39zM383.08 307.28l6.08 3.51.02-7.39-6.08-3.51-.02 7.39zM393.7 313.41l6.09 3.52.02-7.39-6.09-3.52-.02 7.39zM415.81 318.77l-.02 7.4 6.08 3.51.02-7.39-6.08-3.52zM426.41 332.3l6.1 3.52.02-7.39-6.09-3.52-.03 7.39zM426.79 233.44v.96l5.99 3.45v-.95l-5.99-3.46zM426.78 239.31l5.98 3.45.01-.95-5.99-3.45v.95zM426.79 236.04l5.98 3.45.01-.95-5.99-3.46v.96zM426.78 237.67l5.99 3.45v-.94l-5.99-3.46v.95z"/><path d="m440.63 230.46-86.68-50a1.77 1.77 0 0 0-1.76-.18l-6.48 4.65a1.76 1.76 0 0 1 1.74.18l86.68 50.05a5.09 5.09 0 0 1 1.89 2.12l6.81-3.91a5.44 5.44 0 0 0-2.2-2.91Z" style="fill:#fff;opacity:.3"/><path d="M436 237.24a4.89 4.89 0 0 1 .58 2.16l-.34 118.42a1.73 1.73 0 0 1-.69 1.56l6.56-4.7a1.8 1.8 0 0 0 .63-1.52l.34-118.42a4.28 4.28 0 0 0-.27-1.41Z" style="fill:#fff;opacity:.2"/><path style="fill:#37474f" d="m331.95 279.84-.01 4.22-47.3-27.89.01-4.21 47.3 27.88zM320.05 258.93l-.01 4.21-35.36-20.98.01-4.22 35.36 20.99zM352.31 285.16l-.01 4.21-67.64-39.62.01-4.22 67.64 39.63zM352.35 271.14l-.02 4.21-67.63-39.63.01-4.2 67.64 39.62z"/></g><g id="freepik--character-1--inject-58"><path d="M181.16 134s.71-3-1.18-3.42c0 0 1.63-3.44-.43-4.12s-4.66 6.2-7.68 9c-.55.62-4.08 3.81-4.55 2.78l-4.85 1.87a9.3 9.3 0 0 1-1.37 3.88c-5.2 7.92-11.13 11.74-15.56 17.38l-4.3-4.17-8.18 11.37 8 6a9 9 0 0 0 12.81-2.18l14.78-22a7.73 7.73 0 0 1 2.45-2.31c2.35-1.39 6.88-4.21 8.55-6.27 2.35-2.76 2.63-5.81 1.51-7.81Z" style="fill:#ffc3c2"/><path d="M116.21 137.85c8.19-.36 19.3 12.92 25.56 19.18-.48 7.66-8.72 12.69-8.72 12.69a177.79 177.79 0 0 1-16.84-13.17Z" style="fill:#056cf2"/><path d="M116.21 137.85c8.19-.36 19.3 12.92 25.56 19.18-.48 7.66-8.72 12.69-8.72 12.69a177.79 177.79 0 0 1-16.84-13.17Z" style="fill:#fff;opacity:.3"/><path style="fill:#056cf2" d="m190.46 80.29 25.46 54.54-44.59 12.08-25.47-54.54 44.6-12.08z"/><g style="opacity:.3"><path style="fill:#fff" d="m190.46 80.29 25.46 54.54-44.59 12.08-25.47-54.54 44.6-12.08z"/></g><path d="m203.88 121 .64 1.38a2 2 0 0 1-.61 1.51 3.08 3.08 0 0 1-3.84.56 5.46 5.46 0 0 1-1.19-1 4.55 4.55 0 0 1-.87 1.86 3.21 3.21 0 0 1-1.77 1.13 4.69 4.69 0 0 1-3.69-.58l-.47-.3a10.13 10.13 0 0 1-3.4-4.23 7.88 7.88 0 0 1-.93-4.89 3.45 3.45 0 0 1 2.77-2.64 6.75 6.75 0 0 1 1.8-.2 5.29 5.29 0 0 1 1.73.31l-2.67-5.71a5.54 5.54 0 0 0-1.7-2.33l-.15-.1a2.17 2.17 0 0 0-1.67-.25 1.52 1.52 0 0 0-1.16 1.09 1.87 1.87 0 0 1 .63.24 2.47 2.47 0 0 1 .56.43 4.54 4.54 0 0 1 .91 1.33 3.87 3.87 0 0 1 .42 2.41 1.57 1.57 0 0 1-1.19 1.28 2.33 2.33 0 0 1-1.78-.28c-.11-.06-.22-.14-.33-.21a5.81 5.81 0 0 1-1.77-2.28 6.75 6.75 0 0 1-.67-3 4.3 4.3 0 0 1 1-2.7 5.6 5.6 0 0 1 3-1.71 6 6 0 0 1 4.75.52l.16.1a10.56 10.56 0 0 1 3.77 4.72l5.32 11.39a4.08 4.08 0 0 0 1.51 1.88 2.09 2.09 0 0 0 .89.27Zm-6.78 1.08a1.76 1.76 0 0 0 .45-.67l-2-4.17a3.81 3.81 0 0 0-1-.32 2.31 2.31 0 0 0-.91 0 1.22 1.22 0 0 0-.9 1.1 4.12 4.12 0 0 0 .52 2.3 4.45 4.45 0 0 0 1.38 1.78 2.11 2.11 0 0 0 .27.18 1.82 1.82 0 0 0 1.4.22 1.48 1.48 0 0 0 .71-.42M191 126.14a4.3 4.3 0 0 1 .12 1.38l-7.41 2a5.67 5.67 0 0 1-1-1.12 8 8 0 0 1-.87-1.45c1-.29 1.24-1.11.59-2.49a16.09 16.09 0 0 0-1.13-2l-.59-.86-6.12 1.67.26.94a12.69 12.69 0 0 0 .64 2 3.35 3.35 0 0 0 1.25 1.56 1.91 1.91 0 0 0 1.51.16 7.26 7.26 0 0 1 .54 1.54 4.3 4.3 0 0 1 .12 1.38l-6.09 1.65a5.42 5.42 0 0 1-1.05-1.12 8.66 8.66 0 0 1-.87-1.46 1.52 1.52 0 0 0 1.06-1.09 4.39 4.39 0 0 0 0-2.33l-5.23-22a6.48 6.48 0 0 0-3 .19 7.1 7.1 0 0 1-.79-3.28l7.49-2 16.45 23a6.36 6.36 0 0 0 1.93 1.89 2.34 2.34 0 0 0 1.76.4 7.21 7.21 0 0 1 .43 1.44Zm-17.42-6.37 4.93-1.33-6.92-10.13a15.34 15.34 0 0 0-1.66-2l3.65 13.49" style="fill:#fff"/><path d="M120.47 312.13c-.15 3.48 0 7.57 0 7.57l-2 .11a4.9 4.9 0 0 0-4.34 3.23v.13a1.91 1.91 0 0 1-2.36 1.17 1.9 1.9 0 0 1-1.15-1l-1-8.74Z" style="fill:#ffc3c2"/><path d="M123.44 342.44c5.3 2.27 13.41 2.71 16.78-2.7v1.46c-3.37 5.41-11.48 5-16.78 2.71s-4.14-6-8.89-8a12.83 12.83 0 0 1-4.64-2.93c0-.43-.09-1-.16-1.59a16 16 0 0 0 4.8 3.05c4.75 2.04 3.59 5.74 8.89 8Z" style="fill:#37474f"/><path d="M109.75 326.63a7.76 7.76 0 0 0 0-3.13 1.66 1.66 0 0 1 .24-1.38l.4-.39.19 1.61a1.9 1.9 0 0 0 3.51-.17v-.13a4.9 4.9 0 0 1 4.34-3.23l2-.11a1.49 1.49 0 0 1 1.45.91c2.12 5.1 7.43 10.77 11.53 13.36 3-.07 6.74 2.43 6.74 5.47v.3c-3.37 5.41-11.48 5-16.78 2.7s-4.14-6-8.89-7.95a16 16 0 0 1-4.8-3.05 17 17 0 0 1 .07-4.81Z" style="fill:#056cf2"/><path d="M120 330.81a.67.67 0 0 1-1-.81 7.7 7.7 0 0 1 6.92-3c.28.35.57.7.87 1a7.4 7.4 0 0 0-6.79 2.81ZM117.91 328.47a.65.65 0 0 1-.93.09.67.67 0 0 1-.11-.93 8.07 8.07 0 0 1 7.22-3.12c.25.38.52.76.79 1.13a7.48 7.48 0 0 0-6.97 2.83ZM122.18 333.1a.68.68 0 0 1-.94.09.67.67 0 0 1-.11-.93 7.66 7.66 0 0 1 6.74-3.05c.34.36.69.7 1 1a7.4 7.4 0 0 0-6.69 2.89ZM133.48 334c3-.07 6.74 2.43 6.74 5.47v.3c-3.32 5.33-11.24 5-16.54 2.8.41-7.31 7.4-8.63 9.8-8.57ZM124.41 335.28a.67.67 0 0 1-.94.09.68.68 0 0 1-.11-.93 7.71 7.71 0 0 1 6.76-3.05c.42.38.84.73 1.26 1.06a7.48 7.48 0 0 0-6.97 2.83Z" style="fill:#fff"/><path d="M92.3 318.57c-.15 3.48 0 7.58 0 7.58l-2 .11a4.9 4.9 0 0 0-4.34 3.22v.13a1.9 1.9 0 0 1-2.36 1.17 1.89 1.89 0 0 1-1.15-1l-1-8.74Z" style="fill:#ffc3c2"/><path d="M95.27 348.89c5.29 2.26 13.41 2.7 16.78-2.71v1.47c-3.37 5.41-11.49 5-16.78 2.7s-4.14-6-8.89-8a12.9 12.9 0 0 1-4.64-2.92c0-.43-.09-1-.16-1.6a16.15 16.15 0 0 0 4.8 3.06c4.75 2.04 3.62 5.73 8.89 8Z" style="fill:#37474f"/><path d="M81.58 333.07a7.69 7.69 0 0 0 0-3.12 1.67 1.67 0 0 1 .24-1.39l.39-.39.2 1.62a1.91 1.91 0 0 0 3.51-.18v-.13a4.9 4.9 0 0 1 4.34-3.22l2-.11a1.46 1.46 0 0 1 1.45.91c2.12 5.1 7.43 10.76 11.53 13.36 3-.07 6.74 2.42 6.74 5.46v.3c-3.37 5.41-11.49 5-16.78 2.71s-4.14-6-8.89-7.95a16.15 16.15 0 0 1-4.8-3.06 17 17 0 0 1 .07-4.81Z" style="fill:#056cf2"/><path d="M91.84 337.26a.68.68 0 0 1-.94.08.65.65 0 0 1-.11-.92 7.65 7.65 0 0 1 6.92-3c.28.35.57.69.87 1a7.41 7.41 0 0 0-6.74 2.84ZM89.74 334.92a.67.67 0 0 1-1-.84 8.07 8.07 0 0 1 7.18-3.08c.25.38.52.75.79 1.13a7.48 7.48 0 0 0-6.97 2.79ZM94 339.55a.68.68 0 0 1-.94.08.67.67 0 0 1-.11-.93 7.66 7.66 0 0 1 6.74-3.05c.34.36.69.71 1 1.05a7.36 7.36 0 0 0-6.69 2.85ZM105.31 340.42c3-.07 6.74 2.42 6.74 5.46v.3c-3.32 5.33-11.24 5-16.54 2.8.41-7.28 7.4-8.59 9.8-8.56ZM96.24 341.73a.67.67 0 0 1-1-.84 7.69 7.69 0 0 1 6.76-3.06c.42.38.84.73 1.26 1.07a7.48 7.48 0 0 0-7.02 2.83Z" style="fill:#fff"/><path d="m127.32 202.18-1 67.63-3.19 47.33c-8.08 5.11-16.43.27-16.43.27-3.06-22.43-3.18-36.29-1.51-45.62l-1-36.11-1.57 37.32L95 320.83c-8.29 5.38-17.3-.16-17.3-.16 0-17.19-1.76-37.62 3-50-3.35-38.32 2.3-67.76 2.3-67.76Z" style="fill:#37474f"/><path d="m107.56 222.09-3.35 13.59.48 17.44 5-28.1c7.21-2.82 8.15-6.79 8.15-6.79a22.15 22.15 0 0 1-10.28 3.86Z" style="opacity:.3"/><path d="M86.16 144.41c11.72-5.5 20.51-6.14 30.09-6.55 14.34 9.23 9 16.92 8.73 29.25a170.53 170.53 0 0 0 4.42 40.28c-18.79 15-43.66 11.48-49.34 7.88 1.34-36.72-.27-68.27 6.1-70.86Z" style="fill:#056cf2"/><path d="M86.16 144.41c11.72-5.5 20.51-6.14 30.09-6.55 14.34 9.23 9 16.92 8.73 29.25a170.53 170.53 0 0 0 4.42 40.28c-18.79 15-43.66 11.48-49.34 7.88 1.34-36.72-.27-68.27 6.1-70.86Z" style="fill:#fff;opacity:.6"/><path d="M121.74 119.72a9.77 9.77 0 0 0 2.71-12.88 5.26 5.26 0 0 0 2.57-2.42 2.83 2.83 0 0 0-3.68-3.78 4 4 0 0 0-1.59-4.64 3.75 3.75 0 0 0-4.68.86 2.54 2.54 0 0 0-1.74-2.5 5.23 5.23 0 0 0-3.24.2c-1 .36-2 .88-3.07 1.21a24.36 24.36 0 0 1-5.53.71 11.14 11.14 0 0 0-5.33 1.42c-1.56 1-2.94 3.37-2.1 5.41a3.08 3.08 0 0 0-2.22-1.18 3 3 0 0 0-2.27 1c1.16.72 2.29 1.49 3.45 2.21a3.15 3.15 0 0 0-3.55 1.42 7.08 7.08 0 0 0-.62 3.74 50 50 0 0 0 2.57 14.33c.79 2.39 3 6.45 5.26 7.55Z" style="fill:#263238"/><path d="M121.75 107.11a12.36 12.36 0 0 1-8.21 3.45c-2.89 0-5.69-.92-8.48-1.68a6.44 6.44 0 0 1-1.91 3.53 7.36 7.36 0 0 1-4 1.72 25.33 25.33 0 0 1 0 7.87 1.47 1.47 0 0 1-1 1.21c-.94.28-1.56-.68-2-1.46a6.28 6.28 0 0 0-2-2.27 3.15 3.15 0 0 0-2.94-.3 3.06 3.06 0 0 0-1.55 1.89 5.65 5.65 0 0 0-.12 2.49 7.48 7.48 0 0 0 1.62 3.81 5.14 5.14 0 0 0 3.62 1.87 3.73 3.73 0 0 0 3.49-1.72l.06.26a10 10 0 0 0 .38 1.21 10.42 10.42 0 0 0 7.61 6.52c1.77.37 3.73.72 5.73 1 1 .15 2 .29 3 .41a7.12 7.12 0 0 0 7.87-5.83c1.27-7.58 1.72-16.45-1.17-23.98Z" style="fill:#ffc3c2"/><path d="M98.68 129v13.26a14.64 14.64 0 0 0 10.67 5.91 5.23 5.23 0 0 0 3.83-1 3.1 3.1 0 0 0-.39-4.92 1.7 1.7 0 0 1-.77-1.42v-4.31c-2-.3-4-.65-5.73-1a10.42 10.42 0 0 1-7.61-6.52Z" style="fill:#ffc3c2"/><path d="M107.54 138.43a29.16 29.16 0 0 0 4.48.79v-2.69c-2-.3-4-.65-5.73-1a10.39 10.39 0 0 1-7.35-5.94 10.65 10.65 0 0 0 2.68 5.54 12.78 12.78 0 0 0 5.92 3.3ZM115.12 118.44l4.87 5.89-4.47 1.58-.4-7.47z" style="fill:#ffa8a7"/><path d="M108.25 119.18a1.34 1.34 0 1 0 1.34-1.33 1.33 1.33 0 0 0-1.34 1.33ZM119.47 118.82a1.34 1.34 0 1 0 2.67 0 1.34 1.34 0 1 0-2.67 0ZM118.76 112.88l3.58.41a1.9 1.9 0 0 0-1.5-1.58 2.28 2.28 0 0 0-2.08 1.17ZM110.78 112.88l-3.46 1a1.89 1.89 0 0 1 1.2-1.81 2.26 2.26 0 0 1 2.26.81Z" style="fill:#263238"/><path d="m110 127.85 3.73 1.81a2.44 2.44 0 0 1-2.83.81 2.22 2.22 0 0 1-.9-2.62Z" style="fill:#ffa8a7"/><path d="m110 127.85 3.73 1.81a2.44 2.44 0 0 1-2.83.81 2.22 2.22 0 0 1-.9-2.62Z" style="opacity:.3"/><path d="M112.19 130.59a2.28 2.28 0 0 1-1.3-.12 2 2 0 0 1-1-2 2.31 2.31 0 0 1 1.47.51 2.36 2.36 0 0 1 .83 1.61Z" style="fill:#ffa8a7"/><path d="m75.94 220.84-16.54-29a11.67 11.67 0 0 1-.29-9.77l9.2-21.64a28.2 28.2 0 0 1 16-15.35l2.32-.86c1.32 13-2.6 19.23-14.48 41.78 0 0 6.26 21 11.15 30.38a35.31 35.31 0 0 1 10.46 7.58 1.9 1.9 0 0 1 .11 2.5 1.76 1.76 0 0 1-2.19.47c-1.59-.82-3.18-1.67-4.78-2.48a51.53 51.53 0 0 0 6.21 10.28 1.94 1.94 0 0 1-.12 2.52 1.91 1.91 0 0 1-1.7.59l-5.18-.76a9.36 9.36 0 0 1-7-5.14 31.9 31.9 0 0 1-3.17-11.1Z" style="fill:#ffc3c2"/><path d="M86.66 144.18c-10.07 3.45-15.77 5.74-23.76 27.42 4 6.19 15 5.35 15 5.35 14.33-21.61 8.76-32.77 8.76-32.77Z" style="fill:#056cf2"/><path d="M86.66 144.18c-10.07 3.45-15.77 5.74-23.76 27.42 4 6.19 15 5.35 15 5.35 14.33-21.61 8.76-32.77 8.76-32.77Z" style="fill:#fff;opacity:.3"/><path d="M167.32 138.27a1.4 1.4 0 0 1 .06-.93c.77-2.7 1.55-5.26.07-6.33a.83.83 0 0 0-1.23.37c-.59 1.27-2 3.54-2.78 5.05a14.62 14.62 0 0 0-1 3.72l4.85-1.87Z" style="fill:#ffc3c2"/></g><g id="freepik--character-3--inject-58"><path d="M146.35 259.69c-.23-.84.17-4.7-.76-5.36s.81-2.05 2.5-.66-1.74 6.02-1.74 6.02Z" style="fill:#ffa8a7"/><path style="fill:#f0f0f0" d="m147.47 231.19.09 30.28 11.48-6.63-.08-30.28-11.49 6.63z"/><path style="fill:#056cf2" d="m148.66 231.87.02 5.86 9.11-5.26-.01-5.87-9.12 5.27zM148.68 239.09l.02 5.87 9.11-5.26-.01-5.87-9.12 5.26zM148.7 246.32l.02 5.87 9.11-5.26-.01-5.87-9.12 5.26zM148.72 253.56l.02 5.86 9.11-5.27-.01-5.86-9.12 5.27z"/><g style="opacity:.6"><path style="fill:#fff" d="m148.66 231.87.02 5.86 9.11-5.26-.01-5.87-9.12 5.27z"/></g><g style="opacity:.4"><path style="fill:#fff" d="m148.68 239.09.02 5.87 9.11-5.26-.01-5.87-9.12 5.26z"/></g><g style="opacity:.2"><path style="fill:#fff" d="m148.7 246.32.02 5.87 9.11-5.26-.01-5.87-9.12 5.26z"/></g><path d="M74.66 256.56 58 294.32l8.49 9.3-3 12.7-16.79-14.57A9.05 9.05 0 0 1 44.48 291L58 263a11.53 11.53 0 0 1 10.59-6.52Z" style="fill:#e0e0e0"/><path d="M54.61 299s2.66-2.21 3.4-4.64l1.47 1.62a7.58 7.58 0 0 1-4.87 3.02Z" style="opacity:.3"/><path d="M86.52 457.35c.7 1.47 2.91 2.82 5.34 3.22s4.89-.12 7.32-.46a48.17 48.17 0 0 1 10.93-.28 57.58 57.58 0 0 0 6.81.48 10.77 10.77 0 0 0 6.39-2 6.5 6.5 0 0 0 2.4-4.08 6.14 6.14 0 0 1-2.4 5.5 10.85 10.85 0 0 1-6.39 2 57.6 57.6 0 0 1-6.81-.49 48.17 48.17 0 0 0-10.93.28c-2.43.34-5.07 1-7.5.64S87 460.41 86.35 459Z" style="fill:#263238"/><path d="M113.06 453c-2 0-1.29-3-3.24-5 .79 0 1.59.05 2.38.05 1.8 2.51 2.23 4.95.86 4.95ZM108.82 452.87c-2 0-1.51-3.6-3.53-5.7a11.2 11.2 0 0 0 1.4.4c.4.09.8.16 1.21.22 1.8 2.55 2.31 5.08.92 5.08Z" style="fill:#fff"/><path d="M88.63 446a2.71 2.71 0 0 1 1.06-1.66l11-.28a9.42 9.42 0 0 0 4.58 3.14c2 2.1 1.48 5.7 3.53 5.7 1.39 0 .88-2.53-.92-5.08.64.1 1.28.16 1.92.2 2 2 1.2 5 3.24 5 1.37 0 .89-2.47-.86-5h1.54c.47 0 .94 0 1.41-.08 4.06 3.21 4.4 6.68 3.88 12.14a13.73 13.73 0 0 1-2.11.22 57.58 57.58 0 0 1-6.81-.48 48.17 48.17 0 0 0-10.93.28c-2.43.34-4.9.86-7.32.46s-4.64-1.75-5.34-3.22Z" style="fill:#455a64"/><path d="M115.15 448a17.32 17.32 0 0 1 5.52 0 6.59 6.59 0 0 1 5 4.32 4.88 4.88 0 0 1 .08 1.94 6.5 6.5 0 0 1-2.4 4.08 9.55 9.55 0 0 1-4.28 1.8c.48-5.51.14-8.98-3.92-12.14Z" style="fill:#fff"/><path d="M101 440.89v5.31a2.19 2.19 0 0 1-2.19 2.19h-5.52a3.58 3.58 0 0 1-3.58-3.47l-.13-4Z" style="fill:#ffa8a7"/><path d="M64.29 438.53a4.08 4.08 0 0 0 3.34 2.34 7 7 0 0 0 4.24-1c1.91-1.21 2.65-3.12 4-4.85a29.74 29.74 0 0 1 4.61-4.5 15.17 15.17 0 0 0 4.4-5.11 6.59 6.59 0 0 0 .53-1.87 6.66 6.66 0 0 1-.53 3.6 15.14 15.14 0 0 1-4.4 5.1 29.36 29.36 0 0 0-4.61 4.51c-1.31 1.72-2 3.63-4 4.84a7 7 0 0 1-4.24 1 4.08 4.08 0 0 1-3.34-2.34 9.06 9.06 0 0 1-.2-3 3.67 3.67 0 0 0 .2 1.28Z" style="fill:#263238"/><path d="M76.82 426.87a1.4 1.4 0 0 1 .26.91 1 1 0 0 1-.6.69 1.36 1.36 0 0 1-1.24-.32 7.12 7.12 0 0 1-.86-1 6.48 6.48 0 0 0-2.83-2.07 6.63 6.63 0 0 0-1.7-.37l1.38-1.26a6.84 6.84 0 0 1 5.59 3.45Z" style="fill:#fff"/><path d="M76.52 422.49a7 7 0 0 1 3.08 2.84 1.36 1.36 0 0 1 .26.9.92.92 0 0 1-.6.69 1.31 1.31 0 0 1-1.26-.32 7 7 0 0 1-.86-1 6.39 6.39 0 0 0-5.62-2.44l1.36-1.24a6.91 6.91 0 0 1 3.64.57Z" style="fill:#fff"/><path d="M73.77 421.11a14.34 14.34 0 0 1 4.33-2.89 5.76 5.76 0 0 1 6 .82 5.17 5.17 0 0 1 1.32 4.46 6.59 6.59 0 0 1-.53 1.87 9.55 9.55 0 0 1-1.36 2.17c-.53-4.75-4.7-6.97-9.76-6.43Z" style="fill:#fff"/><path d="M64.18 433.87a9.81 9.81 0 0 1 1.08-4.64l2.68-2.81 1.91-1.74a6.63 6.63 0 0 1 1.7.37 6.48 6.48 0 0 1 2.83 2.07 7.12 7.12 0 0 0 .86 1 1.36 1.36 0 0 0 1.24.32 1 1 0 0 0 .6-.69 1.4 1.4 0 0 0-.26-.91 6.84 6.84 0 0 0-5.59-3.45l.31-.28a6.39 6.39 0 0 1 5.62 2.44 7 7 0 0 0 .86 1 1.31 1.31 0 0 0 1.24.32.92.92 0 0 0 .6-.69 1.36 1.36 0 0 0-.26-.9 7 7 0 0 0-3.08-2.84 6.91 6.91 0 0 0-3.62-.59l.82-.74c5.06-.54 9.18 1.68 9.71 6.43a22.24 22.24 0 0 1-3 2.94 29.74 29.74 0 0 0-4.61 4.5c-1.31 1.73-2 3.64-4 4.85a7 7 0 0 1-4.24 1 4.08 4.08 0 0 1-3.34-2.34 3.67 3.67 0 0 1-.2-1.24 31.74 31.74 0 0 1 .14-3.38Z" style="fill:#455a64"/><path d="m73.85 425.48-.31 5.7c-3.6 2.07-7.38.94-8.64-.37l-.24-5.33Z" style="fill:#ffa8a7"/><path d="M66.22 303.17a5.56 5.56 0 0 0 .55-.9 51.8 51.8 0 0 0 37.09 4.22c2.63 19.56 4.89 52.67 3.5 74.52-1.15 25.43-5.83 61.44-5.83 61.44-6.11 1.83-10.69.71-12.41-.61-2-25.23-6.52-42.52-3.06-59.21-2.3-11.66-3.79-26.31-3.79-26.31l-1.77 25.77-6 45.3a10.68 10.68 0 0 1-10.71-.54c-4.34-25.9-6-43.46-2.17-56.32-5.77-42.53-6.06-53.38 4.6-67.36Z" style="fill:#37474f"/><path d="m79.7 351.23-3.2-13.42c-3.73-.61-9.56-3.06-12.63-8.17a25.73 25.73 0 0 0 15.48 5.45l2.92 21.23-.63 9.07-.25-3.3a68.71 68.71 0 0 0-1.69-10.86Z" style="opacity:.3"/><path d="m89.35 257.1 9.33 1.83c2.06 3.78 4.16 7.32 6.22 11.09 1.55 2.84 3.15 5.87 3 9.1a9.26 9.26 0 0 1-5.58 8l4.85 32.12c-12.6 11.44-45 3.26-48.94-.13 1.69-8.58 5.4-12 7.34-21 1.55-7.21-1.48-15.11-2-17.48A56.08 56.08 0 0 1 62 270.19 18.48 18.48 0 0 1 64.49 260l.05-.09A11.41 11.41 0 0 1 76 255Z" style="fill:#fff"/><path d="M74.66 218.13a15.7 15.7 0 0 0-6.82 13.8c.2 3.09 1.34 6.13 1 9.2-.21 1.81-.92 3.64-.45 5.39a5.64 5.64 0 0 0 2.94 3.33c1.35.7 4.5.52 6 .82 4.55 4.14 10.26 2.59 13.89-1.1s9.49-17.57 9.49-17.57a19 19 0 0 0 2.87-9.05 7.59 7.59 0 0 0-1.31-5.15c-1.14-1.41-3.4-2-4.82-.89 1.35-1 .38-3.45-1-4.42a5.84 5.84 0 0 0-4.93-.37 46.68 46.68 0 0 1-4.86 1.58c-2.21.4-4.49-.1-6.72.14s-5.06 2.06-5.28 4.29Z" style="fill:#37474f"/><path style="fill:#ff9192" d="m101.66 236.13 2.84 4.94-3.11 1.15.27-6.09z"/><path d="M102 233.93c-.46-4.33-1.73-8.41-4.55-10.48a23.35 23.35 0 0 1-3.24 15.49 6.87 6.87 0 0 0-2.1-3.71 3.92 3.92 0 0 0-4-.86 4 4 0 0 0-2 2.21 5.26 5.26 0 0 0 6.57 6.95 10.11 10.11 0 0 1-7.77 7.86 13 13 0 0 1-7.53-.72l-1.17 5.84c4.75 5.07 12.87 1.66 12.87 1.66l1.07-5.74c9.34.56 10.22.4 11.24-4.75a50.4 50.4 0 0 0 .61-13.75Z" style="fill:#ffa8a7"/><path d="M92.6 243.53c-.06 1.76 0 3.44-.08 5.2a13.88 13.88 0 0 0 .54 5.49 4.8 4.8 0 0 0 4.07 3.3 12.48 12.48 0 0 1-11.24 2 12.19 12.19 0 0 1-7.93-8 9.29 9.29 0 0 0 2.65 7.59 11.07 11.07 0 0 1-9.92-2.18A10.79 10.79 0 0 1 67 247.6c.27-2.43 1.37-4.67 2.13-7s1.16-5 .09-7.14a64.41 64.41 0 0 0 7.24 7.44 20 20 0 0 0 8.7 4.75 8.89 8.89 0 0 0 3.7.14 7 7 0 0 0 3.74-2.26Z" style="fill:#37474f"/><path d="M79.05 223.45A9 9 0 0 1 70 232.5a8.73 8.73 0 0 1-2.12-.26v-.31a15.7 15.7 0 0 1 6.82-13.8 3.62 3.62 0 0 1 .84-1.86 9 9 0 0 1 3.51 7.18Z" style="opacity:.2"/><circle cx="71.15" cy="220.4" r="9.06" transform="rotate(-12.84 71.137 220.398)" style="fill:#37474f"/><path d="M151.1 273.14a182.53 182.53 0 0 1-20 25.7 4.91 4.91 0 0 1-6.21.66c-10.16-6.7-18.56-18.06-18.56-18.06l11-7.57 9.53 12.39 18-17.74 1.19-9.85a2.4 2.4 0 0 1 1.44-1.93l5.08-2.21a2.43 2.43 0 0 1 1.89 0l3 1.24a1.3 1.3 0 0 1 .55 2 1.29 1.29 0 0 1-1.42.48l-1.46-.43 3.44 2.56a2.71 2.71 0 0 1 1.1 2.18v1.77a2.7 2.7 0 0 1-1.21 2.26l-.42.28a1.4 1.4 0 0 1-2-.49c-.64 3.67-4.94 6.76-4.94 6.76Z" style="fill:#ffa8a7"/><path d="m155.13 257.77-.92-.61a1.48 1.48 0 0 0-1.12-.22l-4.2.83 3.93-1.35a1.51 1.51 0 0 1 1.68.51ZM156 266.33c.39-1.38.61-3.23 0-3.91l1.72.94-.19 1.76Z" style="fill:#f28f8f"/><path d="M135 276.29a2.21 2.21 0 0 0-2.08.55l-2.53 2.41a2.24 2.24 0 0 0-.66 1.93v.23l.73-.69c9 2.86 8 11.85 8 11.85l-1.27 1.61a2.23 2.23 0 0 0 2.12-.8l3.14-4a2.2 2.2 0 0 0 .48-1.48c-.12-2.5-1.09-9.9-7.93-11.61Z" style="fill:#fff"/><path d="M135 276.29a2.21 2.21 0 0 0-2.08.55l-2.53 2.41a2.24 2.24 0 0 0-.66 1.93v.23l.73-.69c9 2.86 8 11.85 8 11.85l-1.27 1.61a2.23 2.23 0 0 0 2.12-.8l3.14-4a2.2 2.2 0 0 0 .48-1.48c-.12-2.5-1.09-9.9-7.93-11.61Z" style="fill:#f0f0f0"/><path d="m130.45 280.72-.73.69-3 2.87-1.07-1.65-12.29-16a20.4 20.4 0 0 0-13.7-7.81l-1.64-.2s-3.29 13.82 3.77 21.51l13.5 14.29a53.28 53.28 0 0 0 9 6.95 6.29 6.29 0 0 0 8.37-1.4l5.82-7.39s.97-9-8.03-11.86Z" style="fill:#e0e0e0"/></g><g id="freepik--character-2--inject-58"><path style="fill:#9c5756" d="m200.35 146.25 3.61 3.35-6.22 34.62-3.84 22.57-13.21 1.54 5.4-24.11 10.23-39.91 4.03 1.94z"/><path d="M195.1 204c-9.1-3.38-15.1 1.4-15.1 1.4l-1.49 38.66 16.26-9.3Z" style="fill:#056cf2"/><path d="M195.1 204c-9.1-3.38-15.1 1.4-15.1 1.4l-1.49 38.66 16.26-9.3Z" style="fill:#263238"/><path d="M195.1 204c-9.1-3.38-15.1 1.4-15.1 1.4l-1.49 38.66 16.26-9.3Z" style="fill:#fff;opacity:.1"/><path d="M203.21 92.86c-1.49-.86-2.71-.16-2.72 1.56L200 150a6 6 0 0 0 2.71 4.69l66.87 38.6c1.49.87 2.71.17 2.72-1.55l.48-55.56a6 6 0 0 0-2.71-4.69Z" style="fill:#056cf2"/><path d="m242.77 225.9 14.36-4.79 9.45-35.69a5.4 5.4 0 0 0-.27-3.13l-1-2.49a10.21 10.21 0 0 1-.73-4.13l.18-5.45a1.68 1.68 0 0 1 1.67-1.62 1.66 1.66 0 0 1 1.63 1.37l.86 4.74 2 2.3 1.62-6.49v-8.46l4.28 6.16a7.5 7.5 0 0 1 1.22 5.46l-1.71 10.37-4.6 40.13a16 16 0 0 1-10.15 13.12l-15.08 5.82Z" style="fill:#9c5756"/><path d="M212 443.08c.78 2.45 3.46 3.85 6 4.06s5.1-.52 7.63-1c5.66-1 11.12 0 16.77-.14a23.68 23.68 0 0 0 5.51-.6 9.16 9.16 0 0 0 4.72-2.78 6.14 6.14 0 0 0 1.35-2.95 5.83 5.83 0 0 1-1.35 4.61 9.16 9.16 0 0 1-4.72 2.78 24.23 24.23 0 0 1-5.51.6c-5.65.13-11.11-.89-16.77.14-2.53.46-5.06 1.18-7.63 1s-5.24-1.6-6-4.05a6.38 6.38 0 0 1-.2-2.61 5.18 5.18 0 0 0 .2.94Z" style="fill:#263238"/><path d="m212.15 438.39 1-5.14a7.44 7.44 0 0 1 .87-2.62 2.58 2.58 0 0 1 2.29-1.31c3.1-.41 7.46-1.54 10 .24a23.15 23.15 0 0 0 13.87 4c2.56-.09 5.13-.62 7.67-.3s5.2 1.72 5.95 4.17a4.85 4.85 0 0 1 .13 2.24 6.14 6.14 0 0 1-1.35 2.95 9.16 9.16 0 0 1-4.72 2.78 23.68 23.68 0 0 1-5.51.6c-5.65.13-11.11-.88-16.77.14-2.53.46-5.06 1.18-7.63 1s-5.24-1.61-6-4.06a5.18 5.18 0 0 1-.2-.95 12.49 12.49 0 0 1 .4-3.74Z" style="fill:#37474f"/><path d="m227.15 424.17.22 6.7a2.66 2.66 0 0 1-2.46 2.74 43.48 43.48 0 0 1-6.76-.06 3.82 3.82 0 0 1-3.45-3.55l-.27-4.95Z" style="fill:#9c5756"/><path d="M183.39 420.6a5.23 5.23 0 0 0 .89 2.77 5 5 0 0 0 3.17 1.78 8 8 0 0 0 7.85-3.23c.84-1.22 1.32-2.66 2.12-3.91a17.91 17.91 0 0 1 4.4-4.28 18.61 18.61 0 0 0 4.43-4.24 6.26 6.26 0 0 0 .85-5.67 4.15 4.15 0 0 1 .42.71 6.44 6.44 0 0 1-.8 6 19 19 0 0 1-4.52 4.47 18.14 18.14 0 0 0-4.5 4.41c-.81 1.29-1.3 2.77-2.16 4a8.12 8.12 0 0 1-8 3.34 5.2 5.2 0 0 1-3.23-1.84 6.24 6.24 0 0 1-.93-3.85c-.01-.17 0-.31.01-.46Z" style="fill:#263238"/><path d="M185.42 412.19c2-3.57 6.24-6.17 9.48-8.7a12.19 12.19 0 0 1 6.28-2.85 5.89 5.89 0 0 1 5.85 3 1.07 1.07 0 0 1 .07.19 6.26 6.26 0 0 1-.85 5.67 18.61 18.61 0 0 1-4.43 4.24 17.91 17.91 0 0 0-4.4 4.28c-.8 1.25-1.28 2.69-2.12 3.91a8 8 0 0 1-7.85 3.23 5 5 0 0 1-3.17-1.78 5.23 5.23 0 0 1-.89-2.77 7.69 7.69 0 0 1 0-1 15.72 15.72 0 0 1 2.03-7.42Z" style="fill:#37474f"/><path d="M194.26 409.09v6.09a10.2 10.2 0 0 1-9.48-.41l-.57-5.49Z" style="fill:#9c5756"/><path d="M182.61 298.58c-1.83 5.48.42 31.52 1.48 56.5-4 9.44-2.89 36.24-.61 55.27 0 0 8 2.6 15.11.17l5-52.7 1.25-29.7s2.25 26.35 4.84 43.25c-2.43 12.94-3.4 14.76.43 55.47 0 0 9.93 3.31 17.24-.28 3.4-55.93 2.15-106.91 1.5-125.24Z" style="fill:#056cf2"/><path d="M182.61 298.58c-1.83 5.48.42 31.52 1.48 56.5-4 9.44-2.89 36.24-.61 55.27 0 0 8 2.6 15.11.17l5-52.7 1.25-29.7s2.25 26.35 4.84 43.25c-2.43 12.94-3.4 14.76.43 55.47 0 0 9.93 3.31 17.24-.28 3.4-55.93 2.15-106.91 1.5-125.24Z" style="opacity:.3"/><path d="m204.07 346.2 1-24.21c-6.26 0-12.07-4.68-16.49-9.11 4.25 7.55 12.47 10.9 12.47 10.9Z" style="opacity:.3"/><path d="M229.8 302.81c-27.93 11.7-46 1.13-48.48-4.37 1.29-19.31-3.28-41.89-2.92-51.48s1.52-20.4 16.4-18.24l15.82 1.55 8 1.95 9.63 20ZM194.8 221.14a4.19 4.19 0 0 1-3.09-1 3.06 3.06 0 0 1-.74-2.65 2.9 2.9 0 0 1-2.12-1.72 3.29 3.29 0 0 1 .49-2.89 4.88 4.88 0 0 1-3.14-2.57 5.1 5.1 0 0 1-.14-4.17 4.5 4.5 0 0 1-3.16-3.14 4.88 4.88 0 0 1 .89-4.51 6.09 6.09 0 0 1-.71-6.06 6.46 6.46 0 0 1 5.21-3.51 6.24 6.24 0 0 1 2-5.6 6 6 0 0 1 5.75-1.13 5.52 5.52 0 0 1 9.21-1.58 4.2 4.2 0 0 1 3.73-1.37 4.34 4.34 0 0 1 3.37 2.22 5.65 5.65 0 0 1 8 5.41 3.35 3.35 0 0 1 2.39 3.29 3.55 3.55 0 0 1-2.76 3.18 78.92 78.92 0 0 1-7.42 21.73c-1.57 3-3.49 6.14-6.53 7.73-3.26 1.73-8.42.75-11.23-1.66Z" style="fill:#263238"/><path d="M194.8 221.14a4.19 4.19 0 0 1-3.09-1 3.06 3.06 0 0 1-.74-2.65 2.9 2.9 0 0 1-2.12-1.72 3.29 3.29 0 0 1 .49-2.89 4.88 4.88 0 0 1-3.14-2.57 5.1 5.1 0 0 1-.14-4.17 4.5 4.5 0 0 1-3.16-3.14 4.88 4.88 0 0 1 .89-4.51 6.09 6.09 0 0 1-.71-6.06 6.46 6.46 0 0 1 5.21-3.51 6.24 6.24 0 0 1 2-5.6 6 6 0 0 1 5.75-1.13 5.52 5.52 0 0 1 9.21-1.58 4.2 4.2 0 0 1 3.73-1.37 4.34 4.34 0 0 1 3.37 2.22 5.65 5.65 0 0 1 8 5.41 3.35 3.35 0 0 1 2.39 3.29 3.55 3.55 0 0 1-2.76 3.18 78.92 78.92 0 0 1-7.42 21.73c-1.57 3-3.49 6.14-6.53 7.73-3.26 1.73-8.42.75-11.23-1.66Z" style="fill:#263238"/><path style="fill:#f28f8f" d="m221.14 203.28 3.28 5.69-3.59 1.33.31-7.02z"/><path style="fill:#803837" d="m221.14 203.28 3.28 5.69-3.59 1.33.31-7.02z"/><path d="M220 193.36a53.08 53.08 0 0 1 .94 24.2 8.23 8.23 0 0 1-1.5 3.83 6 6 0 0 1-4.16 1.92 18.37 18.37 0 0 1-4.67-.45v7.41c-5.63 1.32-11.41 1.85-15.82-1.55v-7.58a20.09 20.09 0 0 0 9.82.61c3.88-2.09 4.66-9.19 4.12-11.06a2.92 2.92 0 0 1-3 1.06 4 4 0 0 1-2.52-2 8.22 8.22 0 0 1-.94-3.15 5.76 5.76 0 0 1 .57-3.91 4.08 4.08 0 0 1 4.4-1.48 6.3 6.3 0 0 1 3.71 3.09 10.69 10.69 0 0 1 .65 1.42.88.88 0 0 0 1.7-.22 11.76 11.76 0 0 0-1.11-6.2 4.28 4.28 0 0 0 3.17-1.94 4 4 0 0 0 .62-3.56 12.11 12.11 0 0 0 4.02-.44ZM200 147.54l2.9-7.49 1.31-5.88a1.5 1.5 0 0 0-1-1.75 1.49 1.49 0 0 0-1.9.94l-1.1 3.19v-9l-3.76 6.73a5.91 5.91 0 0 0-.72 3.32l-.73 11.86Z" style="fill:#9c5756"/><path d="M218.61 232.2c8.9-2.95 24.74-7.73 24.74-7.73 7.11 7.17 6.51 18.75 6.51 18.75l-21.59 9c-20.6 6.51-23.6-15.41-9.66-20.02Z" style="fill:#263238"/><path d="M218.61 232.2c8.9-2.95 24.74-7.73 24.74-7.73 7.11 7.17 6.51 18.75 6.51 18.75l-21.59 9c-20.6 6.51-23.6-15.41-9.66-20.02Z" style="fill:#fff;opacity:.1"/><path style="fill:#fff" d="m224.38 121.15-18.17 14.3-.04 13.98 60.42 34.88.04-13.97-11.51-22.87-10.34 8.03 3.65 11.35-5.3-10.08-18.75-35.62z"/><path d="M244.22 128.19c-2.84-1.64-5.15-.32-5.16 2.95a11.31 11.31 0 0 0 5.13 8.89c2.84 1.64 5.16.32 5.17-2.95a11.34 11.34 0 0 0-5.14-8.89Z" style="fill:#fff"/></g></svg>